<?xml version="1.0" standalone="no"?><!DOCTYPE svg PUBLIC "-//W3C//DTD SVG 1.1//EN" "http://www.w3.org/Graphics/SVG/1.1/DTD/svg11.dtd"><svg t="1512525985401" class="icon" style="" viewBox="0 0 1024 1024" version="1.1" xmlns="http://www.w3.org/2000/svg" p-id="1423" xmlns:xlink="http://www.w3.org/1999/xlink" width="200" height="200"><defs><style type="text/css"></style></defs><path d="M1014.613212 543.119765c-3.970428 3.806699-9.076726 5.699816-14.172791 5.699816-5.372358 0-10.744715-2.108011-14.766308-6.293333l-64.539922-67.24145 0 523.543917c0 11.307533-9.15859 20.466124-20.466124 20.466124l-265.261433 0c-11.307533 0-20.466124-9.15859-20.466124-20.466124 0-11.2973 9.15859-20.466124 20.466124-20.466124l244.795309 0 0-545.729196-367.233895-382.614188-367.223662 382.593721 0 545.749662 224.329185 0L370.07357 672.353105c0-11.307533 9.168824-20.466124 20.466124-20.466124l244.86694 0c11.2973 0 20.466124 9.15859 20.466124 20.466124 0 11.2973-9.168824 20.466124-20.466124 20.466124l-224.400816 0 0 306.009486c0 11.307533-9.15859 20.466124-20.466124 20.466124l-265.261433 0c-11.2973 0-20.466124-9.15859-20.466124-20.466124L104.812137 475.264331l-64.550155 67.251683c-7.828292 8.15575-20.783349 8.42181-28.939099 0.593518s-8.42181-20.783349-0.593518-28.939099L498.201739 6.293333c3.857864-4.021593 9.18929-6.293333 14.766308-6.293333 5.566786 0 10.898211 2.27174 14.756075 6.293333l487.482607 507.887332C1023.035022 522.336416 1022.768963 535.291472 1014.613212 543.119765z" p-id="1424"></path></svg>